<?xml version="1.0" standalone="no"?>
<!DOCTYPE svg PUBLIC "-//W3C//DTD SVG 20010904//EN"
 "http://www.w3.org/TR/2001/REC-SVG-20010904/DTD/svg10.dtd">
<svg version="1.0" xmlns="http://www.w3.org/2000/svg"
 width="170.000000pt" height="198.000000pt" viewBox="0 0 170.000000 198.000000"
 preserveAspectRatio="xMidYMid meet">

<g transform="translate(0.000000,198.000000) scale(0.100000,-0.100000)"
fill="#f90" stroke="none">
<path d="M51 1966 c-52 -29 -50 6 -51 -974 0 -992 -2 -954 55 -980 37 -17
1553 -17 1590 0 57 26 55 -11 55 978 0 989 2 952 -55 978 -40 18 -1561 16
-1594 -2z m689 -391 l0 -35 -100 0 -100 0 0 -55 0 -55 85 0 85 0 0 -35 0 -35
-85 0 -85 0 0 -90 0 -90 -50 0 -50 0 0 215 0 215 150 0 150 0 0 -35z m160 0
c0 -35 0 -35 -45 -35 -45 0 -45 0 -45 35 0 35 0 35 45 35 45 0 45 0 45 -35z
m170 -30 c0 -54 0 -55 30 -55 27 0 30 -3 30 -30 0 -27 -3 -30 -30 -30 l-31 0
3 -97 c3 -97 3 -98 28 -98 21 0 25 -5 25 -30 0 -29 -2 -30 -52 -33 -42 -2 -56
1 -72 17 -19 19 -21 33 -21 131 0 103 -1 110 -20 110 -16 0 -20 7 -20 30 0 23
4 30 20 30 16 0 20 7 20 30 0 23 8 35 38 54 20 14 40 25 45 25 4 1 7 -24 7
-54z m-170 -210 l0 -155 -45 0 -45 0 0 155 0 155 45 0 45 0 0 -155z m575 -370
l25 -24 0 -346 0 -346 -25 -24 -24 -25 -601 0 -601 0 -24 25 -25 24 0 346 0
346 25 24 24 25 601 0 601 0 24 -25z"/>
<path d="M340 605 l0 -215 45 0 45 0 0 110 c0 97 2 112 20 130 22 22 42 25 71
10 17 -10 19 -22 19 -130 l0 -120 45 0 45 0 0 114 c0 62 -5 127 -11 145 -19
55 -97 78 -159 46 l-30 -16 0 71 0 70 -45 0 -45 0 0 -215z"/>
<path d="M1070 605 l0 -215 40 0 c30 0 40 4 40 16 0 13 5 12 34 -5 122 -76
241 76 180 229 -28 70 -107 99 -174 65 l-30 -16 0 71 0 70 -45 0 -45 0 0 -215z
m199 19 c44 -56 16 -184 -40 -184 -11 0 -31 11 -44 25 -34 33 -36 127 -3 162
28 30 62 29 87 -3z"/>
<path d="M710 569 l0 -131 29 -29 c36 -35 90 -39 139 -9 26 16 32 17 32 5 0
-11 12 -15 45 -15 l45 0 0 155 0 155 -45 0 -45 0 0 -97 c0 -109 -11 -143 -52
-157 -50 -18 -58 2 -58 135 l0 119 -45 0 -45 0 0 -131z"/>
</g>
</svg>
